:SAMPLES-PER-SECOND 30
:FULLY-SPECIFIED
:DEGREES
219
root  37.1654 38.4206 11.4722 177.819 85.831 154.098
RightUpLeg  -51.0919 -22.7508 15.7554
RightLeg  25.0341 -0.828085 -0.675032
RightFoot  -2.34514 0.735585 -9.51899
RightToes  0.00048216 0.542163 -0.142577
Spine  66.9871 -5.22829 8.8798
Spine1  3.5311 1.46184 -3.39947
HEad  -36.8739 -7.01183 -1.74869
LeftShoulder1  10.9387 -28.0129 -28.3754
LeftArm  -32.1291 -67.9002 -11.4931
LeftForeArm  25.3904 -3.04843 -6.00476
LeftHand  -0.25398 0.0180481 5.50724
RightShoulder  4.74686 15.7055 18.1383
RightArm  -32.0912 64.1889 10.2358
RightForeArm  -23.1449 5.03741 8.78565
RightHand  -4.54116 12.8327 -28.7933
LeftUpLeg  -49.5804 20.4026 -15.9138
LeftLeg  21.1329 1.6792 1.13219
LeftFoot  1.14026 -0.489528 4.41172
LeftToes  1.06246e-005 4.65855e-005 -8.185e-006
220
root  37.2189 38.8155 11.3945 172.426 85.95 150.682
RightUpLeg  -46.8749 -23.6407 14.4568
RightLeg  21.616 -0.433169 -0.289537
RightFoot  -1.32203 0.759798 -8.74459
RightToes  0.00048216 0.542163 -0.142577
Spine  65.6605 -5.21749 8.77388
Spine1  4.04169 1.24148 -3.1816
HEad  -35.638 -6.57962 -2.39554
LeftShoulder1  11.0581 -27.2848 -29.6271
LeftArm  -24.052 -63.3514 -20.3012
LeftForeArm  25.1764 -3.60155 -6.36614
LeftHand  -0.25398 0.0180481 5.50724
RightShoulder  5.01984 15.7374 19.6223
RightArm  -23.7005 61.1131 17.5061
RightForeArm  -23.1645 4.98865 9.7019
RightHand  -4.4557 12.597 -28.6294
LeftUpLeg  -44.8773 20.5343 -14.6187
LeftLeg  17.1666 2.53488 0.648681
LeftFoot  2.32852 -0.493622 3.99631
LeftToes  1.06246e-005 4.65855e-005 -8.185e-006
221
root  37.3057 39.1514 11.3211 164.442 85.9736 144.319
RightUpLeg  -42.4695 -22.445 11.1409
RightLeg  18.6203 -2.65294 0.214871
RightFoot  -0.618799 0.704543 -7.53576
RightToes  0.00048216 0.542163 -0.142577
Spine  64.1117 -5.23815 8.52341
Spine1  4.09156 0.891132 -3.24366
HEad  -34.0411 -5.90308 -2.82137
LeftShoulder1  11.2155 -26.447 -31.1998
LeftArm  -18.4744 -58.2573 -25.8681
LeftForeArm  25.27 -3.86321 -6.80126
LeftHand  -0.25398 0.0180481 5.50724
RightShoulder  5.37043 15.8474 21.4034
RightArm  -16.8686 57.387 23.1627
RightForeArm  -22.3556 4.58846 10.4885
RightHand  -4.16543 11.9949 -27.7368
LeftUpLeg  -39.116 15.8646 -9.33855
LeftLeg  12.9872 9.54563 -0.962204
LeftFoot  3.74837 -0.560065 4.05236
LeftToes  1.06246e-005 4.65855e-005 -8.185e-006
222
root  37.4333 39.4638 11.2377 161 85.9532 142.776
RightUpLeg  -36.9317 -18.5115 5.90699
RightLeg  15.5185 -8.28845 1.20244
RightFoot  -0.276086 0.557232 -5.75832
RightToes  0.00048216 0.542163 -0.142577
Spine  62.8751 -5.40949 8.5399
Spine1  4.23838 0.684736 -3.30892
HEad  -32.2064 -5.27796 -3.14247
LeftShoulder1  11.4576 -25.5579 -33.1989
LeftArm  -14.6412 -53.2516 -29.1577
LeftForeArm  26.0062 -3.8564 -7.22968
LeftHand  -0.25398 0.0180481 5.50724
RightShoulder  5.66134 15.8122 23.0552
RightArm  -11.911 53.3067 27.2876
RightForeArm  -20.7472 4.21264 11.0093
RightHand  -3.77448 11.0895 -26.5795
LeftUpLeg  -33.484 8.86389 -3.3251
LeftLeg  8.70527 18.5872 -3.20618
LeftFoot  5.05454 -0.639748 4.22658
LeftToes  1.06246e-005 4.65855e-005 -8.185e-006
223
root  37.5956 39.7217 11.1528 158.349 85.9341 141.957
RightUpLeg  -32.1406 -14.542 1.76324
RightLeg  12.7035 -13.3909 2.34776
RightFoot  -0.314663 0.379324 -3.94445
RightToes  0.00048216 0.542163 -0.142577
Spine  61.3811 -5.35072 8.65997
Spine1  4.73069 0.675736 -3.068
HEad  -30.1329 -5.04797 -3.37756
LeftShoulder1  11.9413 -24.9858 -35.6724
LeftArm  -12.1801 -48.3359 -30.8658
LeftForeArm  27.0083 -3.69548 -7.53679
LeftHand  -0.25398 0.0180481 5.50724
RightShoulder  6.00506 15.7339 25.0588
RightArm  -8.62636 48.825 29.279
RightForeArm  -19.5606 4.33197 11.4318
RightHand  -3.49134 10.3387 -25.7975
LeftUpLeg  -29.0993 4.2913 -0.473521
LeftLeg  4.72896 23.8001 -5.01177
LeftFoot  5.8775 -0.660202 4.12332
LeftToes  1.06246e-005 4.65855e-005 -8.185e-006
224
root  37.7785 39.914 11.0722 155.873 86.0071 141.029
RightUpLeg  -28.5009 -11.8083 -0.694431
RightLeg  10.4341 -16.5669 3.40663
RightFoot  -0.507482 0.25262 -2.69943
RightToes  0.00048216 0.542163 -0.142577
Spine  59.9292 -5.14192 8.58873
Spine1  4.89641 0.586236 -2.6075
HEad  -27.7515 -4.61982 -3.65682
LeftShoulder1  12.2626 -24.2347 -37.9172
LeftArm  -10.6672 -43.4317 -31.6601
LeftForeArm  27.4101 -3.663 -7.68168
LeftHand  -0.25398 0.0180481 5.50724
RightShoulder  6.36402 15.7584 26.9563
RightArm  -6.15834 44.3057 30.3766
RightForeArm  -19.0818 4.7931 11.7762
RightHand  -3.33265 9.88096 -25.3789
LeftUpLeg  -25.5687 2.93404 0.0412889
LeftLeg  1.49359 25.0912 -6.08787
LeftFoot  6.18229 -0.606605 3.69033
LeftToes  1.06246e-005 4.65855e-005 -8.185e-006
225
root  37.9767 40.0548 10.9897 157.911 86.2511 144.175
RightUpLeg  -25.714 -9.86795 -1.83916
RightLeg  8.37011 -18.5992 4.31416
RightFoot  -0.614335 0.186812 -2.03414
RightToes  0.00048216 0.542163 -0.142577
Spine  58.1174 -4.99929 8.69878
Spine1  5.1172 0.54125 -2.25295
HEad  -25.0849 -4.00693 -3.98621
LeftShoulder1  12.3894 -23.4111 -39.6805
LeftArm  -9.78408 -38.7824 -32.0416
LeftForeArm  27.2225 -3.75097 -7.69765
LeftHand  -0.25398 0.0180481 5.50724
RightShoulder  6.74231 15.8202 28.8634
RightArm  -4.1749 40.1759 30.5993
RightForeArm  -19.0879 5.35941 12.0518
RightHand  -3.19882 9.49286 -25.0094
LeftUpLeg  -23.0131 3.02069 0.184522
LeftLeg  -0.580029 24.9863 -6.62003
LeftFoot  6.14022 -0.500986 3.01394
LeftToes  1.06246e-005 4.65855e-005 -8.185e-006
